# xmcd CD database file
#
# Track frame offsets:
#	150
#	16162
#	30039
#	44570
#	75378
#	87802
#	102212
#	116687
#	132146
#	143760
#	158265
#	174061
#	187571
#	200277
#	214097
#	227577
#	243062
#	262871
#	274095
#	286472
#	298616
#	312494
#	326416
#
# Disc length: 4555 seconds
#
# Revision: 2
# Processed by: cddbd v1.5.2PL0 Copyright (c) Steve Scherf et al.
# Submitted via: CDex 1.81
#
DISCID=1a11c917
DTITLE=Various Artist - JazzPiano History -  [CD02) Harlem-Stride
DYEAR=1900
DGENRE=Jazz
TTITLE0=Fletcher Henderson - Chime Blues
TTITLE1=Duke Ellington - Black Beauty
TTITLE2=James P. Johnson - Weeping Blues
TTITLE3=James P. Johnson - Runnin' Wild Medley
TTITLE4=James P. Johnson - Snowy Morning Blues
TTITLE5=James P. Johnson - Riffs
TTITLE6=James P. Johnson - You've Got To Be Modernistic
TTITLE7=James P. Johnson - Jingles
TTITLE8=James P. Johnson - Carolina Shout
TTITLE9=Clarence Williams - Windflower Rag
TTITLE10=Clarence Williams and James P. Johnson - How Could I Be Blue
TTITLE11=Thomas "Fats" Waller - Squeeze Me
TTITLE12=Thomas "Fats" Waller - Handful Of Keys
TTITLE13=Thomas "Fats" Waller - Ain's Misbehavin'
TTITLE14=Thomas "Fats" Waller - Alligator Ceawl
TTITLE15=Thomas "Fats" Waller - Honeysuckle Rose
TTITLE16=Cliff Jackson - Hock Shop Blues
TTITLE17=Willie "The Lion" Smith - Passionette
TTITLE18=Willie "The Lion" Smith - Echoes Of Spring
TTITLE19=Willie "The Lion" Smith - Concentratin'
TTITLE20=Willie "The Lion" Smith - Finger Buster
TTITLE21=Willie "The Lion" Smith - Cuttin' Out Willie
TTITLE22=Willie "The Lion" Smith - Relaxin'
EXTD=
EXTT0=
EXTT1=
EXTT2=
EXTT3=
EXTT4=
EXTT5=
EXTT6=
EXTT7=
EXTT8=
EXTT9=
EXTT10=
EXTT11=
EXTT12=
EXTT13=
EXTT14=
EXTT15=
EXTT16=
EXTT17=
EXTT18=
EXTT19=
EXTT20=
EXTT21=
EXTT22=
PLAYORDER=
